<svg width="24" height="24" viewBox="0 0 24 24" fill="none" xmlns="http://www.w3.org/2000/svg">
<path d="M13.65 22H10.35C10.1666 22 10.0041 21.9417 9.86248 21.825C9.72081 21.7083 9.63331 21.5583 9.59998 21.375L9.19998 18.85C8.88331 18.7333 8.54998 18.575 8.19998 18.375C7.84998 18.175 7.54164 17.9667 7.27498 17.75L4.94998 18.825C4.76664 18.9083 4.58331 18.9208 4.39998 18.8625C4.21664 18.8042 4.07498 18.6833 3.97498 18.5L2.32498 15.575C2.22498 15.4083 2.19998 15.2333 2.24998 15.05C2.29998 14.8667 2.39998 14.7167 2.54998 14.6L4.69998 13.025C4.66664 12.875 4.64581 12.7042 4.63748 12.5125C4.62914 12.3208 4.62498 12.15 4.62498 12C4.62498 11.85 4.62914 11.6792 4.63748 11.4875C4.64581 11.2958 4.66664 11.125 4.69998 10.975L2.54998 9.4C2.39998 9.28333 2.29998 9.13333 2.24998 8.95C2.19998 8.76667 2.22498 8.59167 2.32498 8.425L3.97498 5.5C4.07498 5.31667 4.21664 5.19583 4.39998 5.1375C4.58331 5.07917 4.76664 5.09167 4.94998 5.175L7.27498 6.25C7.54164 6.03333 7.84998 5.825 8.19998 5.625C8.54998 5.425 8.88331 5.275 9.19998 5.175L9.59998 2.625C9.63331 2.44167 9.72081 2.29167 9.86248 2.175C10.0041 2.05833 10.1666 2 10.35 2H13.65C13.8333 2 13.9958 2.05833 14.1375 2.175C14.2791 2.29167 14.3666 2.44167 14.4 2.625L14.8 5.15C15.1166 5.26667 15.4541 5.42083 15.8125 5.6125C16.1708 5.80417 16.475 6.01667 16.725 6.25L19.05 5.175C19.2333 5.09167 19.4166 5.07917 19.6 5.1375C19.7833 5.19583 19.925 5.31667 20.025 5.5L21.675 8.4C21.775 8.56667 21.8041 8.74583 21.7625 8.9375C21.7208 9.12917 21.6166 9.28333 21.45 9.4L19.3 10.925C19.3333 11.0917 19.3541 11.2708 19.3625 11.4625C19.3708 11.6542 19.375 11.8333 19.375 12C19.375 12.1667 19.3708 12.3417 19.3625 12.525C19.3541 12.7083 19.3333 12.8833 19.3 13.05L21.45 14.6C21.6 14.7167 21.7 14.8667 21.75 15.05C21.8 15.2333 21.775 15.4083 21.675 15.575L20.025 18.5C19.925 18.6833 19.7833 18.8042 19.6 18.8625C19.4166 18.9208 19.2333 18.9083 19.05 18.825L16.725 17.75C16.4583 17.9667 16.1541 18.1792 15.8125 18.3875C15.4708 18.5958 15.1333 18.75 14.8 18.85L14.4 21.375C14.3666 21.5583 14.2791 21.7083 14.1375 21.825C13.9958 21.9417 13.8333 22 13.65 22ZM12 15.25C12.9 15.25 13.6666 14.9333 14.3 14.3C14.9333 13.6667 15.25 12.9 15.25 12C15.25 11.1 14.9333 10.3333 14.3 9.7C13.6666 9.06667 12.9 8.75 12 8.75C11.1 8.75 10.3333 9.06667 9.69998 9.7C9.06664 10.3333 8.74998 11.1 8.74998 12C8.74998 12.9 9.06664 13.6667 9.69998 14.3C10.3333 14.9333 11.1 15.25 12 15.25Z" fill="#9156DD"/>
</svg>
