<svg width="37" height="37" viewBox="0 0 37 37" fill="none" xmlns="http://www.w3.org/2000/svg">
<path d="M12.7187 25.9L18.4999 20.1188L24.2812 25.9L25.8999 24.2813L20.1187 18.5L25.8999 12.7188L24.2812 11.1L18.4999 16.8813L12.7187 11.1L11.0999 12.7188L16.8812 18.5L11.0999 24.2813L12.7187 25.9ZM18.4999 33.9167C16.393 33.9167 14.4017 33.512 12.526 32.7026C10.6503 31.8932 9.01224 30.7884 7.6119 29.388C6.21155 27.9877 5.10669 26.3497 4.29731 24.474C3.48794 22.5983 3.08325 20.607 3.08325 18.5C3.08325 16.3674 3.48794 14.3632 4.29731 12.4875C5.10669 10.6118 6.21155 8.98022 7.6119 7.59272C9.01224 6.20522 10.6503 5.10678 12.526 4.29741C14.4017 3.48803 16.393 3.08334 18.4999 3.08334C20.6326 3.08334 22.6367 3.48803 24.5124 4.29741C26.3881 5.10678 28.0197 6.20522 29.4072 7.59272C30.7947 8.98022 31.8931 10.6118 32.7025 12.4875C33.5119 14.3632 33.9166 16.3674 33.9166 18.5C33.9166 20.607 33.5119 22.5983 32.7025 24.474C31.8931 26.3497 30.7947 27.9877 29.4072 29.388C28.0197 30.7884 26.3881 31.8932 24.5124 32.7026C22.6367 33.512 20.6326 33.9167 18.4999 33.9167ZM18.4999 31.6042C22.1485 31.6042 25.2447 30.3259 27.7885 27.7693C30.3322 25.2127 31.6041 22.1229 31.6041 18.5C31.6041 14.8514 30.3322 11.7552 27.7885 9.21147C25.2447 6.66772 22.1485 5.39584 18.4999 5.39584C14.877 5.39584 11.7872 6.66772 9.23065 9.21147C6.67405 11.7552 5.39575 14.8514 5.39575 18.5C5.39575 22.1229 6.67405 25.2127 9.23065 27.7693C11.7872 30.3259 14.877 31.6042 18.4999 31.6042Z" fill="#FF0A0A" fill-opacity="0.6"/>
</svg>
