<svg width="14" height="14" viewBox="0 0 14 14" fill="none" xmlns="http://www.w3.org/2000/svg">
<path d="M7.00006 13.7667C6.05562 13.7667 5.17229 13.5889 4.35007 13.2333C3.52784 12.8778 2.81118 12.3944 2.20007 11.7833C1.58895 11.1722 1.1084 10.4528 0.758398 9.625C0.408398 8.79722 0.233398 7.91111 0.233398 6.96666C0.233398 6.02222 0.408398 5.13889 0.758398 4.31666C1.1084 3.49444 1.58895 2.78055 2.20007 2.175C2.81118 1.56944 3.52784 1.09444 4.35007 0.749996C5.17229 0.405552 6.05562 0.23333 7.00006 0.23333C7.94451 0.23333 8.82784 0.405552 9.65007 0.749996C10.4723 1.09444 11.189 1.56944 11.8001 2.175C12.4112 2.78055 12.8917 3.49444 13.2417 4.31666C13.5917 5.13889 13.7667 6.02222 13.7667 6.96666C13.7667 7.91111 13.5917 8.79722 13.2417 9.625C12.8917 10.4528 12.4112 11.1722 11.8001 11.7833C11.189 12.3944 10.4723 12.8778 9.65007 13.2333C8.82784 13.5889 7.94451 13.7667 7.00006 13.7667ZM7.00006 12.6667C7.37784 12.2667 7.69729 11.8111 7.9584 11.3C8.21951 10.7889 8.4334 10.1778 8.60007 9.46666H5.41673C5.57229 10.1333 5.77784 10.7306 6.0334 11.2583C6.28895 11.7861 6.61118 12.2556 7.00006 12.6667ZM5.5834 12.4667C5.30562 12.0556 5.06951 11.6056 4.87507 11.1167C4.68062 10.6278 4.51673 10.0778 4.3834 9.46666H1.90007C2.31118 10.2556 2.79451 10.8722 3.35007 11.3167C3.90562 11.7611 4.65006 12.1444 5.5834 12.4667ZM8.41673 12.45C9.21673 12.1944 9.9334 11.8139 10.5667 11.3083C11.2001 10.8028 11.7112 10.1889 12.1001 9.46666H9.6334C9.48895 10.0667 9.31951 10.6111 9.12506 11.1C8.93062 11.5889 8.69451 12.0389 8.41673 12.45ZM1.56673 8.48333H4.20007C4.16673 8.18333 4.14729 7.91389 4.14173 7.675C4.13618 7.43611 4.1334 7.2 4.1334 6.96666C4.1334 6.68889 4.13895 6.44166 4.15007 6.225C4.16118 6.00833 4.1834 5.76666 4.21673 5.5H1.56673C1.48895 5.76666 1.43618 6.00555 1.4084 6.21666C1.38062 6.42777 1.36673 6.67777 1.36673 6.96666C1.36673 7.25555 1.38062 7.51389 1.4084 7.74166C1.43618 7.96944 1.48895 8.21666 1.56673 8.48333ZM5.2334 8.48333H8.7834C8.82784 8.13889 8.85562 7.85833 8.86673 7.64166C8.87784 7.425 8.8834 7.2 8.8834 6.96666C8.8834 6.74444 8.87784 6.53055 8.86673 6.325C8.85562 6.11944 8.82784 5.84444 8.7834 5.5H5.2334C5.18895 5.84444 5.16118 6.11944 5.15007 6.325C5.13895 6.53055 5.1334 6.74444 5.1334 6.96666C5.1334 7.2 5.13895 7.425 5.15007 7.64166C5.16118 7.85833 5.18895 8.13889 5.2334 8.48333ZM9.7834 8.48333H12.4334C12.5001 8.21666 12.5501 7.96944 12.5834 7.74166C12.6167 7.51389 12.6334 7.25555 12.6334 6.96666C12.6334 6.67777 12.6167 6.42777 12.5834 6.21666C12.5501 6.00555 12.5001 5.76666 12.4334 5.5H9.80007C9.8334 5.9 9.85562 6.2 9.86673 6.4C9.87784 6.6 9.8834 6.78889 9.8834 6.96666C9.8834 7.21111 9.87507 7.44166 9.8584 7.65833C9.84173 7.875 9.81673 8.15 9.7834 8.48333ZM9.61673 4.51666H12.1001C11.7334 3.75 11.2334 3.11389 10.6001 2.60833C9.96673 2.10277 9.2334 1.74444 8.40007 1.53333C8.67784 1.94444 8.91395 2.38611 9.1084 2.85833C9.30284 3.33055 9.47229 3.88333 9.61673 4.51666ZM5.41673 4.51666H8.61673C8.49451 3.92777 8.28895 3.35833 8.00006 2.80833C7.71118 2.25833 7.37784 1.77777 7.00006 1.36666C6.64451 1.66666 6.34729 2.05833 6.1084 2.54166C5.86951 3.025 5.63895 3.68333 5.41673 4.51666ZM1.90007 4.51666H4.40007C4.52229 3.91666 4.67507 3.38333 4.8584 2.91666C5.04173 2.45 5.27784 1.99444 5.56673 1.55C4.74451 1.76111 4.02229 2.11389 3.40007 2.60833C2.77784 3.10277 2.27784 3.73889 1.90007 4.51666Z" fill="#9156DD"/>
</svg>
